<?xml version="1.0" encoding="UTF-8" standalone="no"?>
<svg
   xmlns:dc="http://purl.org/dc/elements/1.1/"
   xmlns:cc="http://creativecommons.org/ns#"
   xmlns:rdf="http://www.w3.org/1999/02/22-rdf-syntax-ns#"
   xmlns:svg="http://www.w3.org/2000/svg"
   xmlns="http://www.w3.org/2000/svg"
   xmlns:sodipodi="http://sodipodi.sourceforge.net/DTD/sodipodi-0.dtd"
   xmlns:inkscape="http://www.inkscape.org/namespaces/inkscape"
   id="blue_copy"
   style="enable-background:new 0 0 100 100;"
   version="1.1"
   viewBox="0 0 100 100"
   xml:space="preserve"
   sodipodi:docname="arrow.svg"
   inkscape:version="0.92.4 (f8dce91, 2019-08-02)"><metadata
     id="metadata20"><rdf:RDF><cc:Work
         rdf:about=""><dc:format>image/svg+xml</dc:format><dc:type
           rdf:resource="http://purl.org/dc/dcmitype/StillImage" /></cc:Work></rdf:RDF></metadata><defs
     id="defs18" /><sodipodi:namedview
     pagecolor="#ffffff"
     bordercolor="#666666"
     borderopacity="1"
     objecttolerance="10"
     gridtolerance="10"
     guidetolerance="10"
     inkscape:pageopacity="0"
     inkscape:pageshadow="2"
     inkscape:window-width="1305"
     inkscape:window-height="713"
     id="namedview16"
     showgrid="false"
     inkscape:zoom="2"
     inkscape:cx="-26.009004"
     inkscape:cy="-2.6102449"
     inkscape:window-x="61"
     inkscape:window-y="27"
     inkscape:window-maximized="1"
     inkscape:current-layer="blue_copy" /><g
     id="Layer_8_copy_4_1_"
     style="fill:#ffffff"><path
       d="M41.762,27.26v8.294c0,0.571,0.305,1.1,0.8,1.385l20.212,11.669c1.066,0.616,1.066,2.155,0,2.771L42.562,63.048   c-0.495,0.286-0.8,0.814-0.8,1.385v8.294c0,1.231,1.333,2.001,2.399,1.385l39.375-22.733c1.066-0.616,1.066-2.155,0-2.771   L44.161,25.875C43.095,25.259,41.762,26.029,41.762,27.26z"
       id="path2"
       style="fill:#ffffff" /><path
       d="M83.537,48.608L44.161,25.875c-0.193-0.112-0.395-0.164-0.597-0.19l37.972,21.923c1.066,0.616,1.066,2.155,0,2.771   L42.161,73.112c-0.1,0.058-0.205,0.092-0.308,0.126c0.308,0.914,1.401,1.398,2.308,0.874l39.375-22.733   C84.603,50.763,84.603,49.224,83.537,48.608z"
       id="path4"
       style="fill:#ffffff" /><path
       d="M41.762,27.26v8.294c0,0.571,0.305,1.1,0.8,1.385l20.212,11.669   c1.066,0.616,1.066,2.155,0,2.771L42.562,63.048c-0.495,0.286-0.8,0.814-0.8,1.385v8.294c0,1.231,1.333,2.001,2.399,1.385   l39.375-22.733c1.066-0.616,1.066-2.155,0-2.771L44.161,25.875C43.095,25.259,41.762,26.029,41.762,27.26z"
       style="fill:#ffffff;stroke:#000000;stroke-miterlimit:10"
       id="path6" /><path
       d="M14.664,27.273v8.294c0,0.571,0.305,1.1,0.8,1.385l20.212,11.669c1.066,0.616,1.066,2.155,0,2.771L15.464,63.061   c-0.495,0.286-0.8,0.814-0.8,1.385v8.294c0,1.231,1.333,2.001,2.399,1.385l39.375-22.733c1.066-0.616,1.066-2.155,0-2.771   L17.063,25.888C15.997,25.272,14.664,26.042,14.664,27.273z"
       id="path8"
       style="fill:#ffffff" /><path
       d="M56.438,48.621L17.063,25.888c-0.193-0.112-0.395-0.164-0.597-0.19l37.972,21.923c1.066,0.616,1.066,2.155,0,2.771   L15.063,73.125c-0.1,0.058-0.205,0.092-0.308,0.126c0.308,0.914,1.401,1.398,2.308,0.874l39.375-22.733   C57.505,50.776,57.505,49.237,56.438,48.621z"
       id="path10"
       style="fill:#ffffff" /><path
       d="M14.664,27.273v8.294c0,0.571,0.305,1.1,0.8,1.385l20.212,11.669   c1.066,0.616,1.066,2.155,0,2.771L15.464,63.061c-0.495,0.286-0.8,0.814-0.8,1.385v8.294c0,1.231,1.333,2.001,2.399,1.385   l39.375-22.733c1.066-0.616,1.066-2.155,0-2.771L17.063,25.888C15.997,25.272,14.664,26.042,14.664,27.273z"
       style="fill:#ffffff;stroke:#000000;stroke-miterlimit:10"
       id="path12" /></g><path
     style="fill:#ffffff;stroke-width:0.17677669"
     d="m 15.789857,74.671692 c -0.548002,-0.183565 -0.878841,-0.433378 -1.203912,-0.909065 -0.26241,-0.383991 -0.29869,-1.022453 -0.29869,-5.256317 v -4.819237 l 0.486136,-0.510552 c 0.267374,-0.280805 5.020458,-3.116444 10.562407,-6.301421 5.54195,-3.184977 10.215483,-5.912145 10.385631,-6.060372 0.360494,-0.314051 0.40583,-1.08169 0.08839,-1.496643 C 35.688283,49.159218 31.014749,46.396781 25.424187,43.179336 19.833624,39.961892 15.040765,37.092308 14.773391,36.802484 L 14.287255,36.27553 v -4.876248 -4.876248 l 0.60104,-0.60104 c 0.692634,-0.692633 1.51235,-0.796046 2.457136,-0.309983 2.726084,1.402484 39.550017,22.830416 39.853488,23.190837 0.586303,0.696329 0.546942,1.812091 -0.08751,2.480614 -0.549475,0.578983 -39.841559,23.285928 -40.526057,23.420061 -0.243068,0.04763 -0.601041,0.03331 -0.795495,-0.03183 z M 36.635205,62.355671 C 57.835073,50.112905 57.159342,50.54639 56.648118,49.517237 56.502176,49.223441 50.444502,45.634123 36.46827,37.560184 20.32744,28.23578 16.4122,26.042624 16.055022,26.125526 c -0.952484,0.221074 -0.967949,0.293812 -1.027821,4.833948 -0.03055,2.316789 0.01424,4.481682 0.09955,4.810873 0.14752,0.569299 0.658978,0.889498 10.472872,6.556568 5.674777,3.27692 10.522277,6.162538 10.77222,6.412483 0.544815,0.544815 0.623256,1.714969 0.160796,2.398727 -0.176911,0.261568 -4.447145,2.823546 -10.741638,6.444575 -10.371804,5.966581 -10.449344,6.015371 -10.633907,6.691077 -0.113631,0.416019 -0.164226,2.295147 -0.130128,4.833059 0.05576,4.150056 0.05603,4.152584 0.483992,4.498852 0.235512,0.190555 0.607944,0.322614 0.827628,0.293465 0.219684,-0.02915 9.353165,-5.223716 20.296624,-11.543482 z"
     id="path42"
     inkscape:connector-curvature="0" /><path
     style="fill:#ffffff;stroke-width:0.17677669"
     d="M 42.82695,74.627749 C 42.529911,74.54243 42.092389,74.26573 41.854678,74.012863 l -0.432201,-0.459759 -0.04802,-4.803221 c -0.04446,-4.446545 -0.0233,-4.842603 0.284888,-5.333552 0.251369,-0.400433 2.813488,-1.959206 10.460291,-6.363961 5.570058,-3.208497 10.314266,-5.978616 10.542684,-6.155821 0.50794,-0.394055 0.5659,-1.34926 0.105946,-1.746032 C 62.598116,49.003741 57.851882,46.227438 52.221077,42.980954 44.432065,38.490137 41.904697,36.951205 41.65484,36.547098 41.352427,36.05799 41.330232,35.633446 41.374454,31.184027 l 0.04802,-4.831917 0.577314,-0.515578 c 1.225425,-1.094386 -0.06691,-1.741192 22.032829,11.02728 12.062405,6.969244 20.094375,11.71333 20.301951,11.991357 0.461463,0.618078 0.471248,1.61923 0.0218,2.230317 -0.231975,0.315402 -6.359681,3.955982 -17.403326,10.339628 -20.89973,12.08084 -22.787406,13.159031 -23.232471,13.269784 -0.194454,0.04839 -0.596585,0.01817 -0.893624,-0.06715 z M 63.637533,62.399865 C 77.53196,54.381702 83.682767,50.741755 83.813067,50.460315 84.271338,49.470484 84.710831,49.753638 65.464108,38.638611 42.494203,25.373439 43.560297,25.970944 43.114424,26.112459 c -0.888173,0.281895 -0.896451,0.330768 -0.896451,5.292519 0,4.318697 0.02328,4.665626 0.331829,4.944859 0.182506,0.165166 4.93559,2.956097 10.562408,6.202069 10.650917,6.144251 10.847118,6.278626 10.847705,7.429396 5.3e-4,1.191745 -0.173492,1.311686 -10.62612,7.320622 -5.481726,3.151297 -10.22531,5.919691 -10.541298,6.151986 l -0.574524,0.422355 v 4.675586 c 0,4.439885 0.01782,4.693409 0.353553,5.02914 0.194454,0.194454 0.516535,0.353553 0.715736,0.353553 0.1992,0 9.356822,-5.190606 20.350271,-11.534679 z"
     id="path44"
     inkscape:connector-curvature="0" /></svg>