<?xml version="1.0" encoding="UTF-8" standalone="no"?>
<svg
   xmlns:dc="http://purl.org/dc/elements/1.1/"
   xmlns:cc="http://creativecommons.org/ns#"
   xmlns:rdf="http://www.w3.org/1999/02/22-rdf-syntax-ns#"
   xmlns:svg="http://www.w3.org/2000/svg"
   xmlns="http://www.w3.org/2000/svg"
   xmlns:sodipodi="http://sodipodi.sourceforge.net/DTD/sodipodi-0.dtd"
   xmlns:inkscape="http://www.inkscape.org/namespaces/inkscape"
   viewBox="0 0 32 32"
   version="1.1"
   id="svg3912"
   sodipodi:docname="profileR.svg"
   inkscape:version="0.92.4 (f8dce91, 2019-08-02)">
  <metadata
     id="metadata3916">
    <rdf:RDF>
      <cc:Work
         rdf:about="">
        <dc:format>image/svg+xml</dc:format>
        <dc:type
           rdf:resource="http://purl.org/dc/dcmitype/StillImage" />
        <dc:title></dc:title>
      </cc:Work>
    </rdf:RDF>
  </metadata>
  <sodipodi:namedview
     pagecolor="#ffffff"
     bordercolor="#666666"
     borderopacity="1"
     objecttolerance="10"
     gridtolerance="10"
     guidetolerance="10"
     inkscape:pageopacity="0"
     inkscape:pageshadow="2"
     inkscape:window-width="1305"
     inkscape:window-height="713"
     id="namedview3914"
     showgrid="false"
     inkscape:zoom="7.375"
     inkscape:cx="16"
     inkscape:cy="16"
     inkscape:window-x="61"
     inkscape:window-y="27"
     inkscape:window-maximized="1"
     inkscape:current-layer="svg3912" />
  <defs
     id="defs3898">
    <style
       id="style3896">.cls-1{fill:none;}</style>
  </defs>
  <g
     data-name="Layer 2"
     id="Layer_2"
     style="fill:#ff5555">
    <path
       d="M16,29A13,13,0,1,1,29,16,13,13,0,0,1,16,29ZM16,5A11,11,0,1,0,27,16,11,11,0,0,0,16,5Z"
       id="path3902"
       style="fill:#ff5555" />
    <path
       d="M16,17a5,5,0,1,1,5-5A5,5,0,0,1,16,17Zm0-8a3,3,0,1,0,3,3A3,3,0,0,0,16,9Z"
       id="path3904"
       style="fill:#ff5555" />
    <path
       d="M25.55,24a1,1,0,0,1-.74-.32A11.35,11.35,0,0,0,16.46,20h-.92a11.27,11.27,0,0,0-7.85,3.16,1,1,0,0,1-1.38-1.44A13.24,13.24,0,0,1,15.54,18h.92a13.39,13.39,0,0,1,9.82,4.32A1,1,0,0,1,25.55,24Z"
       id="path3906"
       style="fill:#ff5555" />
  </g>
  <g
     id="frame">
    <rect
       class="cls-1"
       height="32"
       width="32"
       id="rect3909" />
  </g>
</svg>
